<svg xmlns="http://www.w3.org/2000/svg" viewBox="0 0 512 512">
  <defs>
    <linearGradient id="bg" x1="96" y1="54" x2="416" y2="458" gradientUnits="userSpaceOnUse">
      <stop stop-color="#fb923c"/>
      <stop offset=".56" stop-color="#f97316"/>
      <stop offset="1" stop-color="#ea580c"/>
    </linearGradient>
    <linearGradient id="card" x1="159" y1="128" x2="353" y2="394" gradientUnits="userSpaceOnUse">
      <stop stop-color="#fff7ed"/>
      <stop offset="1" stop-color="#ffedd5"/>
    </linearGradient>
  </defs>
  <rect width="512" height="512" rx="112" fill="url(#bg)"/>
  <path d="M154 132c0-18 15-33 33-33h169c18 0 33 15 33 33v246c0 18-15 33-33 33H187c-18 0-33-15-33-33V132Z" fill="#9a3412" opacity=".16"/>
  <path d="M123 158c0-18 15-33 33-33h191c18 0 33 15 33 33v237c0 14-16 22-27 13l-47-37H156c-18 0-33-15-33-33V158Z" fill="url(#card)"/>
  <path d="M178 202h157M178 257h111M178 312h139" fill="none" stroke="#c2410c" stroke-width="28" stroke-linecap="round"/>
  <circle cx="353" cy="155" r="49" fill="#fff"/>
  <path d="m333 156 14 14 28-35" fill="none" stroke="#f97316" stroke-width="16" stroke-linecap="round" stroke-linejoin="round"/>
</svg>
