<svg xmlns="http://www.w3.org/2000/svg" viewBox="0 0 256 256">
<rect width="256" height="256" rx="56" fill="#f8fafc"/>
<circle cx="128" cy="128" r="96" fill="#cbd5e1" opacity=".26"/>
<circle cx="82" cy="78" r="34" fill="#1f2937"/>
<circle cx="174" cy="78" r="34" fill="#1f2937"/>
<circle cx="128" cy="130" r="82" fill="#fff"/>
<ellipse cx="96" cy="124" rx="25" ry="31" fill="#1f2937"/>
<ellipse cx="160" cy="124" rx="25" ry="31" fill="#1f2937"/>
<path d="M88 119 Q98 111 108 119" fill="none" stroke="#fff" stroke-width="7" stroke-linecap="round"/>
<path d="M151 119 Q161 111 171 119" fill="none" stroke="#fff" stroke-width="7" stroke-linecap="round"/>
<ellipse cx="128" cy="147" rx="14" ry="10" fill="#111827"/>
<path d="M108 174 Q128 158 148 174" fill="none" stroke="#111827" stroke-width="7" stroke-linecap="round"/>
<circle cx="76" cy="152" r="11" fill="#bfdbfe"/>
<circle cx="180" cy="152" r="11" fill="#bfdbfe"/>
<circle cx="198" cy="50" r="26" fill="#ef4444"/>
<path d="M187 39 L209 61 M209 39 L187 61" fill="none" stroke="#fff" stroke-width="9" stroke-linecap="round"/>
<text x="128" y="232" text-anchor="middle" font-family="sans-serif" font-size="21" font-weight="900" fill="#64748b">つぎはいける</text>
</svg>